HIERARCHY
ROOT hip
{
  OFFSET 0 0 0
  CHANNELS 6 Xposition Yposition Zposition Zrotation Yrotation Xrotation
  JOINT abdomen
  {
    OFFSET 0 20.6881 -0.73152
    CHANNELS 3 Zrotation Xrotation Yrotation
    JOINT chest
    {
      OFFSET 0 11.7043 -0.48768
      CHANNELS 3 Zrotation Xrotation Yrotation
      JOINT neck
      {
        OFFSET 0 22.1894 -2.19456
        CHANNELS 3 Zrotation Xrotation Yrotation
        JOINT head
        {
          OFFSET -0.24384 7.07133 1.2192
          CHANNELS 3 Zrotation Xrotation Yrotation
          JOINT leftEye
          {
            OFFSET 4.14528 8.04674 8.04672
            CHANNELS 3 Zrotation Xrotation Yrotation
            End Site
            {
              OFFSET 1 0 0
            }
          }
          JOINT rightEye
          {
            OFFSET -3.6576 8.04674 8.04672
            CHANNELS 3 Zrotation Xrotation Yrotation
            End Site
            {
              OFFSET 1 0 0
            }
          }
        }
      }
      JOINT rCollar
      {
        OFFSET -2.68224 19.2634 -4.8768
        CHANNELS 3 Zrotation Xrotation Yrotation
        JOINT rShldr
        {
          OFFSET -8.77824 -1.95073 1.46304
          CHANNELS 3 Zrotation Xrotation Yrotation
          JOINT rForeArm
          {
            OFFSET -28.1742 -1.7115 0.48768
            CHANNELS 3 Zrotation Xrotation Yrotation
            JOINT rHand
            {
              OFFSET -22.5879 0.773209 7.07136
              CHANNELS 3 Zrotation Xrotation Yrotation
              JOINT rThumb1
              {
                OFFSET -1.2192 -0.487915 3.41376
                CHANNELS 3 Zrotation Xrotation Yrotation
                JOINT rThumb2
                {
                  OFFSET -3.37035 -0.52449 3.41376
                  CHANNELS 3 Zrotation Xrotation Yrotation
                  End Site
                  {
                    OFFSET -1.78271 -1.18214 1.43049
                  }
                }
              }
              JOINT rIndex1
              {
                OFFSET -7.75947 0.938293 5.60832
                CHANNELS 3 Zrotation Xrotation Yrotation
                JOINT rIndex2
                {
                  OFFSET -2.54057 -0.884171 1.56538
                  CHANNELS 3 Zrotation Xrotation Yrotation
                  End Site
                  {
                    OFFSET -1.62519 -0.234802 1.16502
                  }
                }
              }
              JOINT rMid1
              {
                OFFSET -8.24714 1.18213 3.41376
                CHANNELS 3 Zrotation Xrotation Yrotation
                JOINT rMid2
                {
                  OFFSET -3.10165 -0.590103 1.0647
                  CHANNELS 3 Zrotation Xrotation Yrotation
                  End Site
                  {
                    OFFSET -2.48547 -0.328903 0.83742
                  }
                }
              }
              JOINT rRing1
              {
                OFFSET -8.82822 0.546677 1.51678
                CHANNELS 3 Zrotation Xrotation Yrotation
                JOINT rRing2
                {
                  OFFSET -2.60934 -0.819778 -0.0198488
                  CHANNELS 3 Zrotation Xrotation Yrotation
                  End Site
                  {
                    OFFSET -2.33842 -0.294052 0.168128
                  }
                }
              }
              JOINT rPinky1
              {
                OFFSET -8.27202 -0.0477905 -0.4584
                CHANNELS 3 Zrotation Xrotation Yrotation
                JOINT rPinky2
                {
                  OFFSET -1.82734 -0.647385 -0.700984
                  CHANNELS 3 Zrotation Xrotation Yrotation
                  End Site
                  {
                    OFFSET -1.69225 -0.51767 -0.607171
                  }
                }
              }
            }
          }
        }
      }
      JOINT lCollar
      {
        OFFSET 2.68224 19.2634 -4.8768
        CHANNELS 3 Zrotation Xrotation Yrotation
        JOINT lShldr
        {
          OFFSET 8.77824 -1.95073 1.46304
          CHANNELS 3 Zrotation Xrotation Yrotation
          JOINT lForeArm
          {
            OFFSET 28.1742 -1.7115 0.48768
            CHANNELS 3 Zrotation Xrotation Yrotation
            JOINT lHand
            {
              OFFSET 22.5879 0.773209 7.07136
              CHANNELS 3 Zrotation Xrotation Yrotation
              JOINT lThumb1
              {
                OFFSET 1.2192 -0.487915 3.41376
                CHANNELS 3 Zrotation Xrotation Yrotation
                JOINT lThumb2
                {
                  OFFSET 3.37035 -0.52449 3.41376
                  CHANNELS 3 Zrotation Xrotation Yrotation
                  End Site
                  {
                    OFFSET 1.78271 -1.18214 1.43049
                  }
                }
              }
              JOINT lIndex1
              {
                OFFSET 7.75947 0.938293 5.60832
                CHANNELS 3 Zrotation Xrotation Yrotation
                JOINT lIndex2
                {
                  OFFSET 2.54057 -0.884171 1.56538
                  CHANNELS 3 Zrotation Xrotation Yrotation
                  End Site
                  {
                    OFFSET 1.62519 -0.234802 1.16502
                  }
                }
              }
              JOINT lMid1
              {
                OFFSET 8.24714 1.18213 3.41376
                CHANNELS 3 Zrotation Xrotation Yrotation
                JOINT lMid2
                {
                  OFFSET 3.10165 -0.590103 1.0647
                  CHANNELS 3 Zrotation Xrotation Yrotation
                  End Site
                  {
                    OFFSET 2.48547 -0.328903 0.83742
                  }
                }
              }
              JOINT lRing1
              {
                OFFSET 8.82822 0.546677 1.51678
                CHANNELS 3 Zrotation Xrotation Yrotation
                JOINT lRing2
                {
                  OFFSET 2.60934 -0.819778 -0.0198488
                  CHANNELS 3 Zrotation Xrotation Yrotation
                  End Site
                  {
                    OFFSET 2.33842 -0.294052 0.168128
                  }
                }
              }
              JOINT lPinky1
              {
                OFFSET 8.27202 -0.0477905 -0.4584
                CHANNELS 3 Zrotation Xrotation Yrotation
                JOINT lPinky2
                {
                  OFFSET 1.82734 -0.647385 -0.700984
                  CHANNELS 3 Zrotation Xrotation Yrotation
                  End Site
                  {
                    OFFSET 1.69225 -0.51767 -0.607171
                  }
                }
              }
            }
          }
        }
      }
    }
  }
  JOINT rButtock
  {
    OFFSET -8.77824 4.35084 1.2192
    CHANNELS 3 Zrotation Xrotation Yrotation
    JOINT rThigh
    {
      OFFSET 0 -1.70687 -2.19456
      CHANNELS 3 Zrotation Xrotation Yrotation
      JOINT rShin
      {
        OFFSET 0 -36.8199 0.73152
        CHANNELS 3 Zrotation Xrotation Yrotation
        JOINT rFoot
        {
          OFFSET 0.73152 -45.1104 -5.12064
          CHANNELS 3 Zrotation Xrotation Yrotation
          End Site
          {
            OFFSET -1.1221 -3.69964 12.103
          }
        }
      }
    }
  }
  JOINT lButtock
  {
    OFFSET 8.77824 4.35084 1.2192
    CHANNELS 3 Zrotation Xrotation Yrotation
    JOINT lThigh
    {
      OFFSET 0 -1.70687 -2.19456
      CHANNELS 3 Zrotation Xrotation Yrotation
      JOINT lShin
      {
        OFFSET 0 -36.8199 0.73152
        CHANNELS 3 Zrotation Xrotation Yrotation
        JOINT lFoot
        {
          OFFSET -0.73152 -45.1104 -5.12064
          CHANNELS 3 Zrotation Xrotation Yrotation
          End Site
          {
            OFFSET 1.1221 -3.69964 12.103
          }
        }
      }
    }
  }
}
MOTION
Frames:	9
Frame Time:	0.03333
0.0 0.0 0.0 0.0 0.0 0.0 0.0 0.0 0.0 0.0 0.0 0.0 0.0 0.0 0.0 0.0 0.0 0.0 0.0 0.0 0.0 0.0 0.0 0.0 0.0 0.0 0.0 0.0 0.0 0.0 0.0 0.0 0.0 0.0 0.0 0.0 0.0 0.0 0.0 0.0 0.0 0.0 0.0 0.0 0.0 0.0 0.0 0.0 0.0 0.0 0.0 0.0 0.0 0.0 0.0 0.0 0.0 0.0 0.0 0.0 0.0 0.0 0.0 0.0 0.0 0.0 0.0 0.0 0.0 0.0 0.0 0.0 0.0 0.0 0.0 0.0 0.0 0.0 0.0 0.0 0.0 0.0 0.0 0.0 0.0 0.0 0.0 0.0 0.0 0.0 0.0 0.0 0.0 0.0 0.0 0.0 0.0 0.0 0.0 0.0 0.0 0.0 0.0 0.0 0.0 0.0 0.0 0.0 0.0 0.0 0.0 0.0 0.0 0.0 0.0 0.0 0.0 0.0 0.0 0.0 0.0 0.0 0.0 0.0 0.0 0.0 0.0 0.0 0.0 0.0 0.0 0.0
0.5975 54.93090000000001 -1.2396 -123.126374 -74.955591 131.395575 6.949501 11.215372 -4.424408 1.212682 -8.036241 9.906775 -8.391192 27.333044 -115.135096 29.45593 29.503312 129.445051 -0.001635 -0.0 0.001049 -0.001635 -0.0 0.001049 -52.259186 66.156646 55.043701 91.051292 -22.22708 30.312045 170.539863 -1.790408 26.054619 -135.120348 40.600304 117.039494 5.180818 -5.167462 -0.566195 -62.087841 30.878074 54.603486 -12.216885 16.95751 8.062084 176.566174 -38.025904 104.948576 -27.413317 45.997385 21.875098 12.835053 -28.614721 -1.393929 -145.111765 -0.718325 -178.902302 12.155384 47.977937 -3.424413 -155.608931 50.785689 -149.741125 -170.729479 69.836976 -144.105128 -0.990125 -6.407417 1.366432 -69.373574 -18.654429 -80.501706 -172.054304 4.141133 -132.100058 -137.51027 -46.887854 -135.674867 0.865624 0.853697 -0.139449 73.525104 26.301225 -67.444757 32.165348 33.588569 -24.099969 -163.134181 -48.277839 -99.402217 2.474273 6.906689 -1.470814 169.090138 -22.822088 -144.333651 145.120642 0.824242 179.386561 154.723792 -8.006569 178.164145 119.103451 -35.019487 117.011741 -12.78252 28.880386 -4.945611 179.993376 75.750181 0.0049 138.058708 75.16372 -140.211039 -8.792193 -49.078064 -15.841517 66.864332 -5.858052 163.277589 -0.00086 -0.000539 -0.000416 80.194821 -60.045163 179.648588 83.79656 -10.909258 174.421726 8.559151 -7.953431 93.859763
0.7463 55.0169 -1.7425 -118.765219 -74.287839 126.365571 9.954035 10.982249 -40.570971 4.184357 -6.276132 45.513511 -9.365533 25.787802 -105.19012 32.149146 24.702799 120.027594 -0.004053 -0.0 0.001439 0.001376 -0.0 -0.000118 -159.087319 -41.305582 169.032482 124.648915 -13.637062 166.287714 139.754735 47.235624 54.746554 -102.547026 51.678763 84.559493 171.395447 -25.141322 87.344536 14.617148 -69.911407 6.983896 -4.484518 6.902558 2.711432 174.288509 -41.052801 103.043918 -59.553627 59.525503 52.13902 -172.487583 -32.761002 143.841672 -0.006458 -0.567276 -0.178298 -153.890593 15.496319 169.687549 -1.469611 -3.70066 -1.365678 -60.671611 -54.544494 -60.65507 149.641095 23.288937 -154.676098 91.679561 -36.952951 80.685654 -1.560463 28.715624 47.417258 -106.659279 -59.381783 -105.317276 -9.188559 -9.181104 0.683955 -5.28391 -12.884332 11.182561 163.382672 -38.683401 -122.589202 -166.017147 -59.728975 -102.408838 158.225101 0.669889 -141.980313 22.980702 46.859786 -18.926474 -0.001136 0.103409 -0.031672 154.826019 6.611681 -170.97842 -6.993452 21.461148 -6.22488 18.318384 -35.672179 18.860184 0.000625 0.000405 0.002525 -9.633127 5.023665 75.778804 35.509189 4.374217 -83.754603 -53.927546 11.727995 -13.893717 0.002075 -3.9e-05 0.000799 78.128553 -60.755498 159.143189 89.903198 1.082101 91.882293 -118.411915 18.407917 172.429789
0.9022 55.1331 -2.1159 -115.226048 -73.567326 122.291206 8.366462 11.143549 47.284499 -3.905607 -6.701304 -42.619177 10.038828 17.460856 79.135198 -28.269397 -2.176304 -60.466114 0.002366 -0.0 -0.002815 -0.003248 -0.0 0.002918 -2.923477 14.570396 3.649608 -93.322266 -21.904225 -150.936743 25.723124 -25.873712 -141.938266 -121.192397 46.807761 103.88783 -12.774097 11.920181 3.2571 -122.772439 -20.041656 106.39328 -85.150864 42.102432 71.262498 -40.802919 46.419387 24.225917 -145.065169 29.883227 132.508099 105.258891 -78.334899 75.534674 -145.108011 -0.882711 -178.850792 12.046434 31.266121 -5.45593 -113.98587 -39.178354 -111.992283 1.742885 -3.803814 -2.665203 11.080232 37.772258 -12.736152 67.274401 12.913975 -44.986193 -2.548151 -2.376727 48.337807 -95.878683 -60.417181 -96.908668 171.19975 -8.883065 -89.952167 22.587586 -37.97316 -3.722331 142.222264 -0.979531 -117.058221 5.971893 26.720201 2.073109 174.516893 -47.609605 -144.530091 85.394519 63.942948 -77.134379 -0.000359 0.068718 -0.021367 124.979212 -84.835302 146.983659 145.917076 14.456839 142.479054 4.315138 -14.414763 7.40356 -179.999502 75.748507 -0.000228 139.914253 77.990331 169.348105 25.003356 -34.352117 -49.182279 92.970925 79.78538 175.426146 -179.994458 75.750782 -0.005987 -152.027854 -6.118492 89.244728 88.395768 -3.234692 97.741809 140.778049 15.645851 -179.399152
1.088 55.2826 -2.3817999999999997 -113.210689 -73.070114 120.0888 13.011063 10.98917 -51.03423 4.832217 -5.702186 55.662499 -7.53187 27.962752 -122.471952 27.151329 32.52806 135.888181 0.004272 -0.0 -0.000992 -0.001443 0.0 -0.000751 1.88441 -13.174155 -2.7133 109.013763 40.894089 -69.684612 9.522593 -15.544258 116.299061 -15.478619 -35.936372 -8.990951 -144.548593 16.045897 84.107562 -55.324007 -10.704547 27.155776 -163.286249 -38.52756 122.599284 -139.757315 21.679481 113.139936 -3.74514 10.211122 2.296899 -15.698799 39.609898 12.559393 -145.113387 -0.629557 -178.929342 -34.40003 -74.759031 -55.776022 -117.725264 -36.236444 -115.662372 23.799257 60.817321 6.599624 133.138896 52.218137 -137.09234 45.535798 1.919008 26.316162 -120.246839 57.222972 122.257408 -175.536032 35.391413 -167.2173 139.489214 19.858614 -81.874384 120.644076 -2.412226 -60.370342 15.540822 20.589753 -10.557997 4.608689 17.976788 -4.009176 170.778704 -38.125687 -145.301827 172.860828 -32.572699 -143.608801 -0.005124 1.269338 -0.398679 -10.38915 -57.493083 7.867403 -3.610603 10.263215 -3.283627 25.547266 -42.148045 26.002752 0.013196 -0.000153 0.008038 -5.893251 4.984314 174.970432 -11.262319 -42.762343 -84.157121 7.195019 39.061406 -134.659264 -0.007958 0.000278 -0.005618 76.936865 -59.620777 -25.703598 -87.454315 -0.436712 -99.879038 -73.414546 5.932976 175.30876
1.2832 55.4364 -2.5696 -112.514074 -72.924243 119.52206 13.724345 9.462705 -80.427359 5.808203 -2.848651 85.102731 7.196928 13.275009 52.380305 -19.952675 -14.59519 -35.860511 0.001358 -0.0 -0.002456 0.001571 0.0 0.003083 4.268217 -50.47297 -9.883632 112.395537 34.399584 -106.068418 178.756364 14.66141 32.500365 -139.252818 35.083869 122.99634 -10.639685 10.05064 2.54308 -98.548546 7.64588 90.424726 30.789216 -51.327372 -3.648913 -15.464406 36.814012 13.237346 14.555053 -44.022019 -2.827545 171.662526 -60.489082 136.051669 -0.138488 -5.797406 -1.830721 -154.507977 4.71782 171.262968 -144.88665 11.163307 -141.56913 -156.225025 38.818989 -146.176527 -2.432443 -17.960617 3.621964 177.013412 -19.118296 -103.63071 154.173178 -79.114453 -153.193077 -76.634256 -60.129426 -78.776205 2.683893 2.62975 -0.472197 120.646939 -12.490005 -108.204396 166.663129 -43.742559 -122.096047 -65.397016 -63.747074 -13.759559 167.14355 -27.284491 -145.241035 166.927281 -15.585864 -143.772689 145.122817 1.598173 179.628977 156.444211 12.263033 -179.320157 -18.929349 65.787097 -13.068165 -7.362309 17.878522 -3.860292 -179.997814 75.749728 -0.001949 153.132231 80.82557 -61.74686 -47.421764 4.803696 -73.524488 57.314228 -30.526388 147.359553 -0.000926 0.000937 -0.000178 77.164744 -60.307766 -53.573274 -78.831913 -34.053862 -3.175159 3.722859 38.958826 84.488328
1.4394 55.57339999999999 -2.7098 -112.823163 -73.150775 120.066237 8.482636 8.856821 85.236868 -5.641922 -3.59284 -80.222801 -10.402714 21.076129 -79.470586 35.550388 11.171619 96.489551 5.5e-05 0.0 0.003357 5.5e-05 0.0 0.003357 4.278013 -47.843291 -9.298731 85.178707 36.614925 -88.778432 178.9151 -6.437538 31.259745 -139.800138 34.606262 123.540066 -172.899899 -10.576453 89.924738 2.204052 -56.109714 8.508948 -148.734625 -12.332925 120.185196 -173.438098 -37.133777 117.122734 8.361217 -26.251202 -3.087447 -154.527321 19.233811 138.930227 -2.395873 29.215639 10.047377 8.517205 -9.036677 -1.766634 -152.457185 38.340143 -147.766623 5.624867 10.303833 0.953712 -3.699349 -60.763071 12.61828 -71.804432 2.502476 -32.24744 29.405773 42.265844 -27.560086 -1.535117 31.841893 -12.70305 3.378421 3.300626 -0.61407 34.717375 24.369424 -32.501029 126.050648 20.619504 -106.142049 -177.484665 -42.917796 -112.884498 149.351493 22.259605 -135.936678 41.98874 58.1595 -36.217904 145.117397 2.79491 -179.994641 -10.714604 9.409451 7.864005 22.342405 -35.434265 21.465872 132.779462 -21.778344 131.379888 -179.987869 75.748833 -0.010067 144.904519 80.908453 30.962347 0.116531 46.209404 -145.3792 168.285271 -6.009118 -103.954988 -0.000537 -0.000208 -7.9e-05 74.381264 -60.052876 1.397304 -74.233253 35.002958 147.41699 -103.371659 44.8447 20.473736
1.5305 55.6966 -2.8389 -113.932207 -73.65357 121.350063 7.506714 9.104664 69.543916 -4.894688 -5.301587 -64.45949 7.287952 13.224648 52.44318 -20.829325 -15.123902 -36.039304 0.004301 0.0 0.001826 -0.001749 -0.0 0.00077 -159.166933 -52.702549 171.481826 128.61619 -14.965424 177.694262 -66.799462 -45.877642 64.769564 -156.29517 -81.780564 -172.792439 -7.099818 6.828569 1.502429 4.193098 -3.554441 1.362267 -165.657619 -42.242903 122.286965 14.150899 -0.751342 -9.611231 0.028011 -0.082961 -0.01625 -20.559774 45.063106 16.627334 -144.165801 19.599412 174.478024 -143.909885 -56.467275 -164.602865 12.983004 44.322962 10.758683 -29.122926 -43.828827 -29.030056 157.651535 -20.625429 -165.19231 116.821785 -12.225027 129.387766 10.945111 17.625525 40.432508 -52.771242 -54.691904 -54.785553 177.476435 -15.063205 -89.600913 -133.047019 -58.292011 -96.962342 -3.673102 -6.191814 1.936621 3.038348 19.803614 -5.00819 4.969666 13.234122 -3.130307 172.922491 -33.759781 -143.933451 144.970216 8.815278 -178.085287 -3.297462 79.394985 -8.198449 136.66698 -10.143348 133.987473 -11.387202 25.153856 -3.960543 -0.000356 -0.000569 -0.000849 -6.954777 5.011736 90.48326 37.317936 -10.891006 -35.459857 -160.835765 -33.785325 113.193012 -0.000356 -0.000569 -0.000849 71.338996 -61.874422 118.264964 79.68025 24.289497 16.400434 -4.787385 27.587651 -96.529437
1.5539 55.837599999999995 -2.9754 -115.420827 -74.18109 122.968368 7.034202 6.219548 133.351396 -4.863086 0.453431 -128.08102 -9.74269 24.330305 -98.1983 35.306435 21.42218 112.391927 -0.001588 0.0 -0.001629 0.003782 -0.0 -0.003535 -158.715143 -33.722441 167.594451 74.46883 -68.975298 126.698231 128.000607 87.186764 88.729719 -141.996302 32.878957 125.458023 -1.053775 1.036169 0.170283 -148.259658 -57.907823 119.731994 7.223266 -12.534844 -3.50721 -169.119422 -26.153704 109.084901 2.341012 -7.053099 -1.193841 89.465813 -78.493694 60.604809 -145.119797 0.204896 -179.193184 -149.587868 -38.146023 -172.182503 -91.805396 -49.263074 -90.11523 -149.788987 22.452486 -144.843095 -0.979542 -6.331198 1.351574 94.02634 12.491499 -95.193806 2.245924 -16.028385 49.236949 -78.11983 -60.276208 -79.516997 -29.469089 -27.722368 -2.914608 6.480181 -7.92671 14.698698 -1.800132 -2.97826 0.984847 18.425302 33.201723 -14.079013 1.659237 4.70441 -0.966281 174.670319 -38.134294 -143.508501 144.378304 17.503756 -175.209306 -10.506851 35.320772 4.707616 155.872798 51.791139 149.873177 -7.792841 17.520777 -2.708369 0.001746 -3.9e-05 0.000792 -7.274371 5.011286 68.228369 47.46697 11.118376 117.807758 83.691202 -34.62234 169.525987 179.983946 75.74968 0.013052 -153.631394 -4.923289 117.755439 78.056465 -27.927147 162.707184 -2.024285 40.658252 89.846618
